# Blender v2.80 (sub 75) OBJ File: 'tester.blend'
# www.blender.org
o TesterCube
v 0.680000 -0.920000 -0.600000
v 0.680000 -0.680000 -0.600000
v 0.600000 -0.920000 -0.920000
v 0.600000 -0.680000 -0.920000
v 0.920000 -0.920000 -0.600000
v 0.920000 -0.680000 -0.600000
v 1.000000 -1.000000 -1.000000
v 0.920000 -0.600000 -0.920000
v 0.600000 -0.920000 -0.680000
v 0.600000 -0.680000 -0.680000
v 0.920000 -0.600000 -0.680000
v 1.000000 -1.000000 -0.600000
v 0.600000 -1.000000 -1.000000
v 0.600000 -1.000000 -0.600000
v 0.680000 -0.600000 -0.680000
v 0.680000 -0.600000 -0.920000
v 0.600000 -0.600000 -0.600000
v 0.600000 -0.600000 -1.000000
v 1.000000 -0.600000 -1.000000
v 1.000000 -0.600000 -0.600000
v -0.600000 -0.920000 -0.680000
v -0.600000 -0.680000 -0.680000
v -0.920000 -0.920000 -0.600000
v -0.920000 -0.680000 -0.600000
v -0.600000 -0.920000 -0.920000
v -0.600000 -0.680000 -0.920000
v -1.000000 -1.000000 -1.000000
v -0.920000 -0.600000 -0.920000
v -0.680000 -0.920000 -0.600000
v -0.680000 -0.680000 -0.600000
v -0.680000 -0.600000 -0.920000
v -0.600000 -1.000000 -1.000000
v -1.000000 -1.000000 -0.600000
v -0.600000 -1.000000 -0.600000
v -0.680000 -0.600000 -0.680000
v -0.920000 -0.600000 -0.680000
v -0.600000 -0.600000 -0.600000
v -1.000000 -0.600000 -0.600000
v -1.000000 -0.600000 -1.000000
v -0.600000 -0.600000 -1.000000
v -0.680000 -0.920000 0.600000
v -0.680000 -0.680000 0.600000
v -0.600000 -0.920000 0.920000
v -0.600000 -0.680000 0.920000
v -0.920000 -0.920000 0.600000
v -0.920000 -0.680000 0.600000
v -1.000000 -1.000000 1.000000
v -0.920000 -0.600000 0.920000
v -0.600000 -0.920000 0.680000
v -0.600000 -0.680000 0.680000
v -0.920000 -0.600000 0.680000
v -1.000000 -1.000000 0.600000
v -0.600000 -1.000000 1.000000
v -0.600000 -1.000000 0.600000
v -0.680000 -0.600000 0.680000
v -0.680000 -0.600000 0.920000
v -0.600000 -0.600000 0.600000
v -0.600000 -0.600000 1.000000
v -1.000000 -0.600000 1.000000
v -1.000000 -0.600000 0.600000
v 0.600000 -0.920000 0.680000
v 0.600000 -0.680000 0.680000
v 0.920000 -0.920000 0.600000
v 0.920000 -0.680000 0.600000
v 0.600000 -0.920000 0.920000
v 0.600000 -0.680000 0.920000
v 1.000000 -1.000000 1.000000
v 0.920000 -0.600000 0.920000
v 0.680000 -0.920000 0.600000
v 0.680000 -0.680000 0.600000
v 0.680000 -0.600000 0.920000
v 0.600000 -1.000000 1.000000
v 1.000000 -1.000000 0.600000
v 0.600000 -1.000000 0.600000
v 0.680000 -0.600000 0.680000
v 0.920000 -0.600000 0.680000
v 0.600000 -0.600000 0.600000
v 1.000000 -0.600000 0.600000
v 1.000000 -0.600000 1.000000
v 0.600000 -0.600000 1.000000
v -0.680000 0.920000 -0.600000
v -0.680000 0.680000 -0.600000
v -0.600000 0.920000 -0.920000
v -0.600000 0.680000 -0.920000
v -0.920000 0.920000 -0.600000
v -0.920000 0.680000 -0.600000
v -1.000000 1.000000 -1.000000
v -0.920000 0.600000 -0.920000
v -0.600000 0.920000 -0.680000
v -0.600000 0.680000 -0.680000
v -0.920000 0.600000 -0.680000
v -1.000000 1.000000 -0.600000
v -0.600000 1.000000 -1.000000
v -0.600000 1.000000 -0.600000
v -0.680000 0.600000 -0.680000
v -0.680000 0.600000 -0.920000
v -0.600000 0.600000 -0.600000
v -0.600000 0.600000 -1.000000
v -1.000000 0.600000 -1.000000
v -1.000000 0.600000 -0.600000
v 0.600000 0.920000 -0.680000
v 0.600000 0.680000 -0.680000
v 0.920000 0.920000 -0.600000
v 0.920000 0.680000 -0.600000
v 0.600000 0.920000 -0.920000
v 0.600000 0.680000 -0.920000
v 1.000000 1.000000 -1.000000
v 0.920000 0.600000 -0.920000
v 0.680000 0.920000 -0.600000
v 0.680000 0.680000 -0.600000
v 0.680000 0.600000 -0.920000
v 0.600000 1.000000 -1.000000
v 1.000000 1.000000 -0.600000
v 0.600000 1.000000 -0.600000
v 0.680000 0.600000 -0.680000
v 0.920000 0.600000 -0.680000
v 0.600000 0.600000 -0.600000
v 1.000000 0.600000 -0.600000
v 1.000000 0.600000 -1.000000
v 0.600000 0.600000 -1.000000
v 0.680000 0.920000 0.600000
v 0.680000 0.680000 0.600000
v 0.600000 0.920000 0.920000
v 0.600000 0.680000 0.920000
v 0.920000 0.920000 0.600000
v 0.920000 0.680000 0.600000
v 1.000000 1.000000 1.000000
v 0.920000 0.600000 0.920000
v 0.600000 0.920000 0.680000
v 0.600000 0.680000 0.680000
v 0.920000 0.600000 0.680000
v 1.000000 1.000000 0.600000
v 0.600000 1.000000 1.000000
v 0.600000 1.000000 0.600000
v 0.680000 0.600000 0.680000
v 0.680000 0.600000 0.920000
v 0.600000 0.600000 0.600000
v 0.600000 0.600000 1.000000
v 1.000000 0.600000 1.000000
v 1.000000 0.600000 0.600000
v -0.600000 0.920000 0.680000
v -0.600000 0.680000 0.680000
v -0.920000 0.920000 0.600000
v -0.920000 0.680000 0.600000
v -0.600000 0.920000 0.920000
v -0.600000 0.680000 0.920000
v -1.000000 1.000000 1.000000
v -0.920000 0.600000 0.920000
v -0.680000 0.920000 0.600000
v -0.680000 0.680000 0.600000
v -0.680000 0.600000 0.920000
v -0.600000 1.000000 1.000000
v -1.000000 1.000000 0.600000
v -0.600000 1.000000 0.600000
v -0.680000 0.600000 0.680000
v -0.920000 0.600000 0.680000
v -0.600000 0.600000 0.600000
v -1.000000 0.600000 0.600000
v -1.000000 0.600000 1.000000
v -0.600000 0.600000 1.000000
vt 0.578125 0.515625
vt 0.671875 0.046875
vt 0.671875 0.515625
vt 0.359375 0.515625
vt 0.203125 0.359375
vt 0.359375 0.359375
vt 0.046875 0.359375
vt 0.203125 0.203125
vt 0.859375 0.046875
vt 0.953125 0.515625
vt 0.859375 0.515625
vt 0.359375 0.203125
vt 0.328125 0.078125
vt 0.328125 0.171875
vt 0.234375 0.171875
vt 0.203125 0.046875
vt 0.234375 0.078125
vt 0.359375 0.046875
vt 0.390625 0.234375
vt 0.515625 0.203125
vt 0.484375 0.234375
vt 0.515625 0.359375
vt 0.484375 0.328125
vt 0.390625 0.328125
vt 0.328125 0.640625
vt 0.359375 0.671875
vt 0.328125 0.546875
vt 0.203125 0.515625
vt 0.234375 0.640625
vt 0.234375 0.546875
vt 0.203125 0.671875
vt 0.046875 0.359375
vt 0.203124 0.203125
vt 0.203124 0.359375
vt 0.765625 0.515625
vt 0.859375 0.046875
vt 0.859375 0.515625
vt 0.578125 0.515625
vt 0.671875 0.046875
vt 0.671875 0.515625
vt 0.359375 0.515625
vt 0.359375 0.359375
vt 0.953125 0.046875
vt 0.953125 0.515625
vt 0.953125 0.046875
vt 0.859375 0.515625
vt 0.859375 0.046875
vt 0.765625 0.046875
vt 0.859375 0.515625
vt 0.765625 0.046875
vt 0.859375 0.046875
vt 0.359375 0.203125
vt 0.953125 0.046875
vt 0.859375 0.515625
vt 0.859375 0.046875
vt 0.328125 0.078125
vt 0.328125 0.171875
vt 0.234375 0.171875
vt 0.203124 0.046875
vt 0.234375 0.078125
vt 0.359375 0.046875
vt 0.390625 0.234375
vt 0.515625 0.203125
vt 0.484375 0.234375
vt 0.515625 0.359375
vt 0.484375 0.328125
vt 0.390625 0.328125
vt 0.328125 0.640625
vt 0.359375 0.671875
vt 0.328125 0.546875
vt 0.203124 0.515625
vt 0.234375 0.640625
vt 0.234375 0.546875
vt 0.203124 0.671875
vt 0.765625 0.515625
vt 0.765625 0.046875
vt 0.671875 0.046875
vt 0.578125 0.515625
vt 0.578125 0.046875
vt 0.765625 0.046875
vt 0.671875 0.515625
vt 0.953125 0.046875
vt 0.953125 0.515625
vt 0.765625 0.515625
vt 0.359375 0.515625
vt 0.203125 0.359375
vt 0.359375 0.359375
vt 0.046875 0.359375
vt 0.203125 0.203125
vt 0.859375 0.515625
vt 0.953125 0.046875
vt 0.953125 0.515625
vt 0.359375 0.203125
vt 0.578125 0.515625
vt 0.671875 0.046875
vt 0.671875 0.515625
vt 0.328125 0.078125
vt 0.328125 0.171875
vt 0.234375 0.171875
vt 0.203125 0.046875
vt 0.234375 0.078125
vt 0.359375 0.046875
vt 0.390625 0.234375
vt 0.515625 0.203125
vt 0.484375 0.234375
vt 0.515625 0.359375
vt 0.484375 0.328125
vt 0.390625 0.328125
vt 0.328125 0.640625
vt 0.359375 0.671875
vt 0.234375 0.546875
vt 0.328125 0.546875
vt 0.234375 0.640625
vt 0.203125 0.515625
vt 0.203125 0.671875
vt 0.046875 0.359375
vt 0.203125 0.203125
vt 0.203125 0.359375
vt 0.578125 0.515625
vt 0.671875 0.046875
vt 0.671875 0.515625
vt 0.578125 0.046875
vt 0.671875 0.515625
vt 0.578125 0.515625
vt 0.578125 0.515625
vt 0.671875 0.046875
vt 0.671875 0.515625
vt 0.359375 0.515625
vt 0.359375 0.359375
vt 0.765625 0.515625
vt 0.859375 0.046875
vt 0.765625 0.046875
vt 0.359375 0.203125
vt 0.328125 0.078125
vt 0.328125 0.171875
vt 0.234375 0.171875
vt 0.203125 0.046875
vt 0.234375 0.078125
vt 0.359375 0.046875
vt 0.390625 0.234375
vt 0.515625 0.203125
vt 0.484375 0.234375
vt 0.515625 0.359375
vt 0.484375 0.328125
vt 0.390625 0.328125
vt 0.328125 0.640625
vt 0.359375 0.671875
vt 0.234375 0.546875
vt 0.328125 0.546875
vt 0.234375 0.640625
vt 0.203125 0.515625
vt 0.203125 0.671875
vt 0.953125 0.046875
vt 0.859375 0.515625
vt 0.859375 0.046875
vt 0.953125 0.046875
vt 0.859375 0.515625
vt 0.859375 0.046875
vt 0.359375 0.515625
vt 0.203125 0.359375
vt 0.359375 0.359375
vt 0.046875 0.359375
vt 0.203125 0.203125
vt 0.765625 0.046875
vt 0.765625 0.515625
vt 0.359375 0.203125
vt 0.328125 0.171875
vt 0.359375 0.046875
vt 0.234375 0.078125
vt 0.203125 0.046875
vt 0.234375 0.171875
vt 0.328125 0.078125
vt 0.390625 0.234375
vt 0.515625 0.203125
vt 0.484375 0.234375
vt 0.515625 0.359375
vt 0.484375 0.328125
vt 0.390625 0.328125
vt 0.328125 0.640625
vt 0.359375 0.671875
vt 0.234375 0.546875
vt 0.328125 0.546875
vt 0.234375 0.640625
vt 0.203125 0.515625
vt 0.203125 0.671875
vt 0.046875 0.359375
vt 0.203125 0.203125
vt 0.203125 0.359375
vt 0.765625 0.515625
vt 0.765625 0.046875
vt 0.359375 0.515625
vt 0.359375 0.359375
vt 0.671875 0.515625
vt 0.671875 0.046875
vt 0.765625 0.046875
vt 0.671875 0.515625
vt 0.671875 0.046875
vt 0.859375 0.515625
vt 0.953125 0.046875
vt 0.953125 0.515625
vt 0.359375 0.203125
vt 0.578125 0.515625
vt 0.671875 0.046875
vt 0.671875 0.515625
vt 0.328125 0.078125
vt 0.328125 0.171875
vt 0.234375 0.171875
vt 0.203125 0.046875
vt 0.234375 0.078125
vt 0.359375 0.046875
vt 0.390625 0.234375
vt 0.484375 0.234375
vt 0.515625 0.203125
vt 0.515625 0.359375
vt 0.484375 0.328125
vt 0.390625 0.328125
vt 0.328125 0.640625
vt 0.359375 0.671875
vt 0.328125 0.546875
vt 0.203125 0.515625
vt 0.234375 0.640625
vt 0.234375 0.546875
vt 0.203125 0.671875
vt 0.765625 0.515625
vt 0.859375 0.046875
vt 0.578125 0.515625
vt 0.671875 0.046875
vt 0.671875 0.515625
vt 0.765625 0.046875
vt 0.359375 0.359375
vt 0.203125 0.515625
vt 0.203125 0.359375
vt 0.046875 0.359375
vt 0.203125 0.203125
vt 0.859375 0.515625
vt 0.953125 0.046875
vt 0.953125 0.515625
vt 0.359375 0.203125
vt 0.953125 0.046875
vt 0.859375 0.515625
vt 0.859375 0.046875
vt 0.328125 0.078125
vt 0.328125 0.171875
vt 0.234375 0.171875
vt 0.203125 0.046875
vt 0.234375 0.078125
vt 0.359375 0.046875
vt 0.390625 0.234375
vt 0.515625 0.203125
vt 0.484375 0.234375
vt 0.515625 0.359375
vt 0.484375 0.328125
vt 0.390625 0.328125
vt 0.328125 0.640625
vt 0.359375 0.515625
vt 0.359375 0.671875
vt 0.328125 0.546875
vt 0.234375 0.640625
vt 0.234375 0.546875
vt 0.203125 0.671875
vt 0.046875 0.359375
vt 0.203125 0.203125
vt 0.203125 0.359375
vt 0.578125 0.046875
vt 0.578125 0.515625
vt 0.359375 0.515625
vt 0.359375 0.359375
vt 0.765625 0.515625
vt 0.859375 0.046875
vt 0.671875 0.046875
vt 0.578125 0.515625
vt 0.578125 0.046875
vt 0.765625 0.046875
vt 0.765625 0.515625
vt 0.671875 0.515625
vt 0.578125 0.046875
vt 0.765625 0.046875
vt 0.359375 0.203125
vt 0.328125 0.078125
vt 0.328125 0.171875
vt 0.234375 0.171875
vt 0.203125 0.046875
vt 0.234375 0.078125
vt 0.359375 0.046875
vt 0.390625 0.234375
vt 0.484375 0.234375
vt 0.515625 0.203125
vt 0.515625 0.359375
vt 0.484375 0.328125
vt 0.390625 0.328125
vt 0.328125 0.640625
vt 0.359375 0.671875
vt 0.234375 0.546875
vt 0.328125 0.546875
vt 0.234375 0.640625
vt 0.203125 0.515625
vt 0.203125 0.671875
vt 0.859375 0.515625
vt 0.859375 0.046875
vt 0.765625 0.515625
vt 0.953125 0.046875
vt 0.953125 0.515625
vt 0.765625 0.046875
vt 0.578125 0.046875
vt 0.046875 0.203125
vt 0.953125 0.046875
vt 0.046875 0.203125
vt 0.578125 0.046875
vt 0.953125 0.515625
vt 0.765625 0.515625
vt 0.953125 0.515625
vt 0.046875 0.203125
vt 0.578125 0.046875
vt 0.046875 0.203125
vt 0.578125 0.046875
vt 0.671875 0.046875
vt 0.578125 0.046875
vt 0.953125 0.515625
vt 0.953125 0.515625
vt 0.046875 0.203125
vt 0.046875 0.203125
vt 0.765625 0.515625
vt 0.578125 0.046875
vt 0.578125 0.046875
vt 0.046875 0.203125
vt 0.953125 0.515625
vt 0.046875 0.203125
vt 0.578125 0.515625
vn -1.0000 0.0000 0.0000
vn 0.0000 0.0000 -1.0000
vn 1.0000 0.0000 0.0000
vn 0.0000 1.0000 0.0000
vn 0.0000 -1.0000 0.0000
vn -0.0000 0.0000 1.0000
s off
f 70/1/1 1/2/1 69/3/1
f 18/4/2 7/5/2 13/6/2
f 19/7/3 12/8/3 7/5/3
f 46/9/4 30/10/4 24/11/4
f 7/5/5 14/12/5 13/6/5
f 2/13/6 14/12/6 1/14/6
f 5/15/6 20/16/6 6/17/6
f 1/14/6 12/8/6 5/15/6
f 2/13/6 20/16/6 17/18/6
f 9/19/1 13/6/1 14/12/1
f 9/19/1 17/20/1 10/21/1
f 10/21/1 18/22/1 4/23/1
f 4/23/1 13/6/1 3/24/1
f 15/25/4 18/4/4 17/26/4
f 16/27/4 19/28/4 18/4/4
f 11/29/4 19/28/4 8/30/4
f 15/25/4 20/31/4 11/29/4
f 39/32/2 32/33/2 27/34/2
f 63/35/3 6/36/3 64/37/3
f 22/38/4 4/39/4 26/40/4
f 38/41/1 27/34/1 33/42/1
f 64/37/4 2/43/4 70/44/4
f 10/45/6 21/46/6 9/47/6
f 69/3/5 5/48/5 63/35/5
f 61/49/5 43/50/5 49/51/5
f 27/34/5 34/52/5 33/42/5
f 95/53/3 31/54/3 96/55/3
f 22/56/3 34/52/3 21/57/3
f 25/58/3 40/59/3 26/60/3
f 21/57/3 32/33/3 25/58/3
f 22/56/3 40/59/3 37/61/3
f 29/62/6 33/42/6 34/52/6
f 29/62/6 37/63/6 30/64/6
f 30/64/6 38/65/6 24/66/6
f 24/66/6 33/42/6 23/67/6
f 35/68/4 38/41/4 37/69/4
f 36/70/4 39/71/4 38/41/4
f 31/72/4 39/71/4 28/73/4
f 35/68/4 40/74/4 31/72/4
f 46/9/1 23/75/1 45/76/1
f 91/77/6 35/78/6 95/79/6
f 88/80/1 36/81/1 91/77/1
f 61/49/2 50/82/2 62/83/2
f 88/80/2 31/54/2 28/84/2
f 58/85/6 47/86/6 53/87/6
f 59/88/1 52/89/1 47/86/1
f 151/90/3 55/91/3 155/92/3
f 47/86/5 54/93/5 53/87/5
f 155/94/2 51/95/2 156/96/2
f 42/97/2 54/93/2 41/98/2
f 45/99/2 60/100/2 46/101/2
f 45/99/2 54/93/2 52/89/2
f 46/101/2 57/102/2 42/97/2
f 49/103/3 53/87/3 54/93/3
f 49/103/3 57/104/3 50/105/3
f 50/105/3 58/106/3 44/107/3
f 44/107/3 53/87/3 43/108/3
f 55/109/4 58/85/4 57/110/4
f 48/111/4 58/85/4 56/112/4
f 51/113/4 59/114/4 48/111/4
f 51/113/4 57/110/4 60/115/4
f 79/116/6 72/117/6 67/118/6
f 30/119/3 41/120/3 29/121/3
f 102/122/6 89/123/6 90/124/6
f 62/125/4 44/126/4 66/127/4
f 78/128/3 67/118/3 73/129/3
f 29/121/5 45/76/5 23/75/5
f 148/130/6 56/131/6 151/90/6
f 43/50/6 66/127/6 44/126/6
f 156/96/1 48/132/1 148/130/1
f 73/129/5 72/117/5 74/133/5
f 62/134/1 74/133/1 61/135/1
f 65/136/1 80/137/1 66/138/1
f 61/135/1 72/117/1 65/136/1
f 66/138/1 77/139/1 62/134/1
f 69/140/2 73/129/2 74/133/2
f 69/140/2 77/141/2 70/142/2
f 70/142/2 78/143/2 64/144/2
f 64/144/2 73/129/2 63/145/2
f 75/146/4 78/128/4 77/147/4
f 68/148/4 78/128/4 76/149/4
f 71/150/4 79/151/4 68/148/4
f 75/146/4 80/152/4 71/150/4
f 102/153/5 84/154/5 106/155/5
f 150/156/3 81/157/3 149/158/3
f 98/159/2 87/160/2 93/161/2
f 99/162/1 92/163/1 87/160/1
f 89/123/4 105/164/4 83/165/4
f 87/160/4 94/166/4 93/161/4
f 81/167/6 97/168/6 94/166/6
f 86/169/6 92/163/6 100/170/6
f 85/171/6 94/166/6 92/163/6
f 82/172/6 100/170/6 97/168/6
f 89/173/3 93/161/3 94/166/3
f 89/173/3 97/174/3 90/175/3
f 90/175/3 98/176/3 84/177/3
f 84/177/3 93/161/3 83/178/3
f 95/179/5 98/159/5 97/180/5
f 88/181/5 98/159/5 96/182/5
f 91/183/5 99/184/5 88/181/5
f 91/183/5 97/180/5 100/185/5
f 119/186/2 112/187/2 107/188/2
f 106/155/2 83/165/2 105/164/2
f 149/158/4 85/189/4 143/190/4
f 118/191/3 107/188/3 113/192/3
f 143/190/1 86/193/1 144/194/1
f 145/195/4 129/196/4 141/197/4
f 11/198/6 115/199/6 15/200/6
f 107/188/4 114/201/4 113/192/4
f 15/202/1 111/203/1 16/204/1
f 102/205/1 114/201/1 101/206/1
f 105/207/1 120/208/1 106/209/1
f 101/206/1 112/187/1 105/207/1
f 102/205/1 120/208/1 117/210/1
f 109/211/6 113/192/6 114/201/6
f 110/212/6 114/201/6 117/213/6
f 110/212/6 118/214/6 104/215/6
f 104/215/6 113/192/6 103/216/6
f 115/217/5 118/191/5 117/218/5
f 116/219/5 119/220/5 118/191/5
f 111/221/5 119/220/5 108/222/5
f 115/217/5 120/223/5 111/221/5
f 8/224/3 116/225/3 11/198/3
f 110/226/1 121/227/1 109/228/1
f 16/204/2 108/229/2 8/224/2
f 133/230/6 139/231/6 127/232/6
f 139/233/3 132/234/3 127/232/3
f 104/235/5 122/236/5 110/237/5
f 133/230/4 132/234/4 134/238/4
f 75/239/2 131/240/2 76/241/2
f 122/242/2 134/238/2 121/243/2
f 125/244/2 140/245/2 126/246/2
f 121/243/2 132/234/2 125/244/2
f 126/246/2 137/247/2 122/242/2
f 129/248/1 133/230/1 134/238/1
f 129/248/1 137/249/1 130/250/1
f 130/250/1 138/251/1 124/252/1
f 124/252/1 133/230/1 123/253/1
f 135/254/5 138/255/5 137/256/5
f 136/257/5 139/231/5 138/255/5
f 131/258/5 139/231/5 128/259/5
f 135/254/5 140/260/5 131/258/5
f 159/261/6 152/262/6 147/263/6
f 142/264/2 129/196/2 130/265/2
f 158/266/1 147/263/1 153/267/1
f 103/268/3 126/269/3 104/235/3
f 71/270/1 135/271/1 75/272/1
f 109/228/4 125/273/4 103/268/4
f 71/270/6 128/274/6 136/275/6
f 86/193/5 150/276/5 144/194/5
f 76/241/3 128/274/3 68/277/3
f 153/267/4 152/262/4 154/278/4
f 142/279/3 154/278/3 141/280/3
f 145/281/3 160/282/3 146/283/3
f 141/280/3 152/262/3 145/281/3
f 146/283/3 157/284/3 142/279/3
f 149/285/2 153/267/2 154/278/2
f 150/286/2 154/278/2 157/287/2
f 150/286/2 158/288/2 144/289/2
f 144/289/2 153/267/2 143/290/2
f 155/291/5 158/266/5 157/292/5
f 148/293/5 158/266/5 156/294/5
f 151/295/5 159/296/5 148/293/5
f 155/291/5 160/297/5 151/295/5
f 124/298/6 145/195/6 146/299/6
f 25/300/5 9/47/5 21/46/5
f 124/298/5 142/301/5 130/302/5
f 26/40/2 3/303/2 25/300/2
f 70/1/1 2/304/1 1/2/1
f 18/4/2 19/28/2 7/5/2
f 19/7/3 20/305/3 12/8/3
f 46/9/4 42/306/4 30/10/4
f 7/5/5 12/8/5 14/12/5
f 2/13/6 17/18/6 14/12/6
f 5/15/6 12/8/6 20/16/6
f 1/14/6 14/12/6 12/8/6
f 2/13/6 6/17/6 20/16/6
f 9/19/1 3/24/1 13/6/1
f 9/19/1 14/12/1 17/20/1
f 10/21/1 17/20/1 18/22/1
f 4/23/1 18/22/1 13/6/1
f 15/25/4 16/27/4 18/4/4
f 16/27/4 8/30/4 19/28/4
f 11/29/4 20/31/4 19/28/4
f 15/25/4 17/26/4 20/31/4
f 39/32/2 40/307/2 32/33/2
f 63/35/3 5/48/3 6/36/3
f 22/38/4 10/308/4 4/39/4
f 38/41/1 39/71/1 27/34/1
f 64/37/4 6/36/4 2/43/4
f 10/45/6 22/309/6 21/46/6
f 69/3/5 1/2/5 5/48/5
f 61/49/5 65/310/5 43/50/5
f 27/34/5 32/33/5 34/52/5
f 95/53/3 35/311/3 31/54/3
f 22/56/3 37/61/3 34/52/3
f 25/58/3 32/33/3 40/59/3
f 21/57/3 34/52/3 32/33/3
f 22/56/3 26/60/3 40/59/3
f 29/62/6 23/67/6 33/42/6
f 29/62/6 34/52/6 37/63/6
f 30/64/6 37/63/6 38/65/6
f 24/66/6 38/65/6 33/42/6
f 35/68/4 36/70/4 38/41/4
f 36/70/4 28/73/4 39/71/4
f 31/72/4 40/74/4 39/71/4
f 35/68/4 37/69/4 40/74/4
f 46/9/1 24/11/1 23/75/1
f 91/77/6 36/81/6 35/78/6
f 88/80/1 28/84/1 36/81/1
f 61/49/2 49/51/2 50/82/2
f 88/80/2 96/55/2 31/54/2
f 58/85/6 59/114/6 47/86/6
f 59/88/1 60/312/1 52/89/1
f 151/90/3 56/131/3 55/91/3
f 47/86/5 52/89/5 54/93/5
f 155/94/2 55/313/2 51/95/2
f 42/97/2 57/102/2 54/93/2
f 45/99/2 52/89/2 60/100/2
f 45/99/2 41/98/2 54/93/2
f 46/101/2 60/100/2 57/102/2
f 49/103/3 43/108/3 53/87/3
f 49/103/3 54/93/3 57/104/3
f 50/105/3 57/104/3 58/106/3
f 44/107/3 58/106/3 53/87/3
f 55/109/4 56/112/4 58/85/4
f 48/111/4 59/114/4 58/85/4
f 51/113/4 60/115/4 59/114/4
f 51/113/4 55/109/4 57/110/4
f 79/116/6 80/314/6 72/117/6
f 30/119/3 42/315/3 41/120/3
f 102/122/6 101/316/6 89/123/6
f 62/125/4 50/317/4 44/126/4
f 78/128/3 79/151/3 67/118/3
f 29/121/5 41/120/5 45/76/5
f 148/130/6 48/132/6 56/131/6
f 43/50/6 65/310/6 66/127/6
f 156/96/1 51/95/1 48/132/1
f 73/129/5 67/118/5 72/117/5
f 62/134/1 77/139/1 74/133/1
f 65/136/1 72/117/1 80/137/1
f 61/135/1 74/133/1 72/117/1
f 66/138/1 80/137/1 77/139/1
f 69/140/2 63/145/2 73/129/2
f 69/140/2 74/133/2 77/141/2
f 70/142/2 77/141/2 78/143/2
f 64/144/2 78/143/2 73/129/2
f 75/146/4 76/149/4 78/128/4
f 68/148/4 79/151/4 78/128/4
f 71/150/4 80/152/4 79/151/4
f 75/146/4 77/147/4 80/152/4
f 102/153/5 90/318/5 84/154/5
f 150/156/3 82/319/3 81/157/3
f 98/159/2 99/184/2 87/160/2
f 99/162/1 100/320/1 92/163/1
f 89/123/4 101/316/4 105/164/4
f 87/160/4 92/163/4 94/166/4
f 81/167/6 82/172/6 97/168/6
f 86/169/6 85/171/6 92/163/6
f 85/171/6 81/167/6 94/166/6
f 82/172/6 86/169/6 100/170/6
f 89/173/3 83/178/3 93/161/3
f 89/173/3 94/166/3 97/174/3
f 90/175/3 97/174/3 98/176/3
f 84/177/3 98/176/3 93/161/3
f 95/179/5 96/182/5 98/159/5
f 88/181/5 99/184/5 98/159/5
f 91/183/5 100/185/5 99/184/5
f 91/183/5 95/179/5 97/180/5
f 119/186/2 120/321/2 112/187/2
f 106/155/2 84/154/2 83/165/2
f 149/158/4 81/157/4 85/189/4
f 118/191/3 119/220/3 107/188/3
f 143/190/1 85/189/1 86/193/1
f 145/195/4 123/322/4 129/196/4
f 11/198/6 116/225/6 115/199/6
f 107/188/4 112/187/4 114/201/4
f 15/202/1 115/323/1 111/203/1
f 102/205/1 117/210/1 114/201/1
f 105/207/1 112/187/1 120/208/1
f 101/206/1 114/201/1 112/187/1
f 102/205/1 106/209/1 120/208/1
f 109/211/6 103/216/6 113/192/6
f 110/212/6 109/211/6 114/201/6
f 110/212/6 117/213/6 118/214/6
f 104/215/6 118/214/6 113/192/6
f 115/217/5 116/219/5 118/191/5
f 116/219/5 108/222/5 119/220/5
f 111/221/5 120/223/5 119/220/5
f 115/217/5 117/218/5 120/223/5
f 8/224/3 108/229/3 116/225/3
f 110/226/1 122/324/1 121/227/1
f 16/204/2 111/203/2 108/229/2
f 133/230/6 138/255/6 139/231/6
f 139/233/3 140/325/3 132/234/3
f 104/235/5 126/269/5 122/236/5
f 133/230/4 127/232/4 132/234/4
f 75/239/2 135/326/2 131/240/2
f 122/242/2 137/247/2 134/238/2
f 125/244/2 132/234/2 140/245/2
f 121/243/2 134/238/2 132/234/2
f 126/246/2 140/245/2 137/247/2
f 129/248/1 123/253/1 133/230/1
f 129/248/1 134/238/1 137/249/1
f 130/250/1 137/249/1 138/251/1
f 124/252/1 138/251/1 133/230/1
f 135/254/5 136/257/5 138/255/5
f 136/257/5 128/259/5 139/231/5
f 131/258/5 140/260/5 139/231/5
f 135/254/5 137/256/5 140/260/5
f 159/261/6 160/327/6 152/262/6
f 142/264/2 141/197/2 129/196/2
f 158/266/1 159/296/1 147/263/1
f 103/268/3 125/273/3 126/269/3
f 71/270/1 136/275/1 135/271/1
f 109/228/4 121/227/4 125/273/4
f 71/270/6 68/277/6 128/274/6
f 86/193/5 82/328/5 150/276/5
f 76/241/3 131/240/3 128/274/3
f 153/267/4 147/263/4 152/262/4
f 142/279/3 157/284/3 154/278/3
f 145/281/3 152/262/3 160/282/3
f 141/280/3 154/278/3 152/262/3
f 146/283/3 160/282/3 157/284/3
f 149/285/2 143/290/2 153/267/2
f 150/286/2 149/285/2 154/278/2
f 150/286/2 157/287/2 158/288/2
f 144/289/2 158/288/2 153/267/2
f 155/291/5 156/294/5 158/266/5
f 148/293/5 159/296/5 158/266/5
f 151/295/5 160/297/5 159/296/5
f 155/291/5 157/292/5 160/297/5
f 124/298/6 123/322/6 145/195/6
f 25/300/5 3/303/5 9/47/5
f 124/298/5 146/299/5 142/301/5
f 26/40/2 4/39/2 3/303/2
